<svg xmlns="http://www.w3.org/2000/svg" xmlns:xlink="http://www.w3.org/1999/xlink" width="540.25" height="613.8" preserveAspectRatio="xMidYMid meet" version="1.1" viewBox="0 0 540.25 613.8"><defs><path id="a2iRxzv6O" d="M561.71 13.61l.24.01.24.02.23.02.24.03.23.04.24.03.23.05.23.05.08.04.09.04.11.05.12.05.13.05.15.06.16.05.17.06.19.07.19.07.21.07.21.07.22.09.23.08.24.09.25.1.25.1.26.11.26.11.27.12.27.13.28.13.27.14.28.15.29.16.28.16.28.17.29.18.28.19.28.2.28.21.27.21.28.23.27.23.26.25.26.26.25.26.25.28.24.29.24.3.01.02.03.03.02.03.03.03.03.03.04.04.04.04.04.05.04.04.05.05.05.06.05.05.06.06.05.06.06.06.06.07.06.06.06.07.06.07.06.07.07.07.06.08.06.07.07.08.06.07.07.08.06.08.06.08.06.08.06.08.06.08.06.08.06.08.05.08.05.08.05.08.05.08.05.08.04.08.04.07.02.08.03.08.03.1.04.1.05.11.05.12.06.12.06.14.07.14.07.15.07.16.08.16.08.18.08.18.08.2.08.2.09.21.08.22.09.22.08.24.08.25.08.25.08.26.07.27.07.28.07.29.06.3.06.3.06.32.05.32.04.34.03.34.03.35.02.36.02.37v.77l-.01.4-.03.41-.03.41v582.94l-.05.13-.05.12-.05.13-.05.12-.05.12-.06.12-.05.12-.05.12-.05.12-.05.11-.05.12-.05.11-.05.11-.05.11-.05.11-.06.11-.05.1-.05.11-.05.1-.05.11-.05.1-.05.1-.05.1-.05.09-.06.1-.05.1-.05.09-.05.09-.05.09-.05.09-.05.09-.05.09-.05.09-.05.08-.06.08-.05.09-.05.08-.05.08-.05.08-.05.07-.06.05-.07.07-.07.07-.08.08-.08.09-.08.1-.09.1-.09.12-.11.12-.1.13-.11.14-.12.14-.13.15-.13.15-.14.16-.15.17-.16.16-.16.18-.17.17-.19.18-.19.18-.19.18-.21.19-.22.19-.23.18-.24.19-.25.19-.26.19-.27.19-.29.19-.29.18-.31.19-.32.18-.33.18-.35.17-.36.18-.37.17-.38.16-.4.16-.42.16-.03.01-.05.02-.04.02-.05.03-.05.03-.06.03-.06.04-.07.04-.07.04-.07.04-.08.05-.08.05-.09.05-.09.05-.09.05-.1.05-.1.06-.11.05-.11.06-.11.05-.12.06-.12.05-.13.05-.12.05-.14.05-.14.05-.14.05-.14.05-.15.04-.15.04-.16.04-.16.03-.16.04-.17.02-.17.03-.18.02-.17.02-.19.01-.18.01h-1.95l-.23-.01-.23-.01-.23-.01-.23-.02-.23-.02-.23-.02-.23-.03-.23-.04-.23-.03-.23-.04-.23-.05-.23-.04-.23-.06-.23-.05-.23-.06-.23-.06-.23-.07-.23-.07-.23-.08-.23-.08-.23-.08-.23-.08-.23-.09-.23-.1-.23-.09-.23-.11-.23-.1-.22-.11-.23-.11-.23-.12-.23-.12-.23-.13-.23-.12-.23-.14-.23-.13-.23-.14-.23-.15-.23-.14-.23-.15-.06-.03-.07-.04-.08-.04-.1-.04-.11-.05-.12-.05-.14-.06-.14-.06-.16-.06-.17-.07-.17-.07-.18-.07-.18-.08-.2-.08-.19-.09-.21-.08-.2-.09-.21-.1-.2-.09-.21-.1-.21-.1-.21-.1-.2-.1-.21-.11-.2-.11-.19-.11-.19-.11-.18-.11-.18-.11-.17-.11-.16-.12-.15-.11-.14-.12-.13-.11-.12-.12-.11-.11-.09-.12-.08-.12-.06-.11-.05-.12-497.18-288.4-9.19-9.19-.1-.18-.09-.18-.09-.19-.09-.19-.08-.19-.08-.2-.07-.2-.07-.2-.06-.21-.06-.21-.06-.21-.05-.21-.05-.22-.04-.22-.03-.23-.04-.23-.03-.23-.02-.23-.02-.24-.01-.24-.01-.25-.01-.24v-.51l.01-.25.01-.26.02-.27.02-.26.02-.27.03-.28.04-.27.03-.28.05-.28.04-.29.06-.29.05-.29.06-.29.07-.3.07-.3.07-.31.06-.1.06-.12.06-.13.06-.15.06-.17.06-.18.06-.19.06-.21.07-.23.07-.23.08-.25.08-.26.09-.27.09-.28.1-.3.11-.3.12-.31.13-.32.14-.33.15-.34.17-.34.17-.36.19-.35.2-.37.22-.36.23-.38.25-.37.27-.38.28-.39.3-.38.33-.39.34-.39.36-.39.38-.4.4-.39.43-.39.45-.39.47-.39.5-.39.52-.38L498.76 46.01l54.62-30.11.28-.15.28-.15.28-.14.27-.13.28-.13.27-.13.27-.12.28-.11.27-.11.26-.11.27-.1.27-.09.26-.09.27-.09.26-.07.26-.08.26-.07.26-.06.25-.06.26-.05.25-.05.26-.05.25-.03.25-.04.25-.03.25-.02.25-.02.24-.01.25-.01h.48zM254.77 415.07l263.9 157.73 8.17 4.09-157.73-326.18L268.04 396.7zm291.97 143.95l.51-4.59-1.53-499.23-186.31 104.65zM228.22 399.76v-.1l.01-.05v-.05l.01-.05v-.05l.01-.04.01-.05.01-.05.02-.04.01-.04.01-.05.02-.04.02-.04.02-.05.02-.04.02-.04.02-.04.02-.04.03-.04.02-.03.03-.04.03-.04.03-.03.03-.04.03-.03.04-.04.03-.03.04-.03.04-.04.04-.03.04-.03.04-.03.04-.03.04-.03.05-.03.05-.02.04-.03.05-.03.05-.02 124.55-178.66-21.44-44.92L81.72 315.02z"></path><linearGradient id="gradientbyU7Ntg6i" x1="19.3" x2="595.33" y1="608.02" y2="31.98" gradientUnits="userSpaceOnUse"><stop offset="23.8%" stop-color="#2f2de0" stop-opacity="1"></stop><stop offset="78.1%" stop-color="#5394e2" stop-opacity="1"></stop></linearGradient></defs><g transform="translate(-37.18 -13.1)"><g><g><use width="100%" height="100%" x="0" y="0" fill="url(#gradientbyU7Ntg6i)" opacity="1" xlink:href="#a2iRxzv6O"></use><g><use width="100%" height="100%" x="0" y="0" fill-opacity="0" stroke="#000" stroke-opacity="0" stroke-width="1" opacity="1" xlink:href="#a2iRxzv6O"></use></g></g></g></g></svg>